<?xml version="1.0" encoding="UTF-8"?>
<svg
  xmlns="http://www.w3.org/2000/svg"
  viewBox="0 0 512 512"
  width="512"
  height="512"
>
  <defs>
    <filter
      id="sombra"
      x="-35%"
      y="-35%"
      width="170%"
      height="170%"
    >
      <feDropShadow
        dx="0"
        dy="13"
        stdDeviation="12"
        flood-color="#000000"
        flood-opacity="0.48"
      />
    </filter>

    <filter
      id="sombraLeve"
      x="-25%"
      y="-25%"
      width="150%"
      height="150%"
    >
      <feDropShadow
        dx="0"
        dy="7"
        stdDeviation="7"
        flood-color="#000000"
        flood-opacity="0.36"
      />
    </filter>

    <linearGradient
      id="metal"
      x1="0"
      y1="0"
      x2="1"
      y2="1"
    >
      <stop
        offset="0"
        stop-color="#d5d8d5"
      />

      <stop
        offset="0.35"
        stop-color="#7b8581"
      />

      <stop
        offset="0.7"
        stop-color="#404946"
      />

      <stop
        offset="1"
        stop-color="#171c1b"
      />
    </linearGradient>

    <linearGradient
      id="metalEscuro"
      x1="0"
      y1="0"
      x2="0"
      y2="1"
    >
      <stop
        offset="0"
        stop-color="#505956"
      />

      <stop
        offset="0.5"
        stop-color="#292f2d"
      />

      <stop
        offset="1"
        stop-color="#101312"
      />
    </linearGradient>

    <linearGradient
      id="madeiraEscura"
      x1="0"
      y1="0"
      x2="1"
      y2="1"
    >
      <stop
        offset="0"
        stop-color="#755038"
      />

      <stop
        offset="0.45"
        stop-color="#42291f"
      />

      <stop
        offset="1"
        stop-color="#1c1310"
      />
    </linearGradient>

    <linearGradient
      id="tecido"
      x1="0"
      y1="0"
      x2="1"
      y2="1"
    >
      <stop
        offset="0"
        stop-color="#5f243c"
      />

      <stop
        offset="0.5"
        stop-color="#361627"
      />

      <stop
        offset="1"
        stop-color="#160d14"
      />
    </linearGradient>

    <linearGradient
      id="papel"
      x1="0"
      y1="0"
      x2="0"
      y2="1"
    >
      <stop
        offset="0"
        stop-color="#eee3bd"
      />

      <stop
        offset="0.55"
        stop-color="#c5b282"
      />

      <stop
        offset="1"
        stop-color="#88724f"
      />
    </linearGradient>

    <linearGradient
      id="vidro"
      x1="0"
      y1="0"
      x2="1"
      y2="1"
    >
      <stop
        offset="0"
        stop-color="#d9eff0"
        stop-opacity=".8"
      />

      <stop
        offset="0.48"
        stop-color="#698d8e"
        stop-opacity=".62"
      />

      <stop
        offset="1"
        stop-color="#263f41"
        stop-opacity=".82"
      />
    </linearGradient>

    <radialGradient
      id="luzVela"
      cx="50%"
      cy="38%"
      r="64%"
    >
      <stop
        offset="0"
        stop-color="#fffbd0"
      />

      <stop
        offset="0.28"
        stop-color="#ffd45f"
      />

      <stop
        offset="0.66"
        stop-color="#ef6b25"
      />

      <stop
        offset="1"
        stop-color="#8d1e20"
      />
    </radialGradient>

    <radialGradient
      id="energia"
      cx="50%"
      cy="45%"
      r="60%"
    >
      <stop
        offset="0"
        stop-color="#f7b9ff"
      />

      <stop
        offset="0.32"
        stop-color="#b85aff"
      />

      <stop
        offset="0.67"
        stop-color="#6120a4"
      />

      <stop
        offset="1"
        stop-color="#1a0d2d"
      />
    </radialGradient>

    <radialGradient
      id="sangue"
      cx="42%"
      cy="35%"
      r="74%"
    >
      <stop
        offset="0"
        stop-color="#b42635"
      />

      <stop
        offset="0.55"
        stop-color="#711625"
      />

      <stop
        offset="1"
        stop-color="#270b10"
      />
    </radialGradient>

    <pattern
      id="perigo"
      width="72"
      height="72"
      patternUnits="userSpaceOnUse"
      patternTransform="rotate(35)"
    >
      <rect
        width="36"
        height="72"
        fill="#d0a529"
      />

      <rect
        x="36"
        width="36"
        height="72"
        fill="#202321"
      />
    </pattern>
  </defs>


  <g filter="url(#sombra)">
    <path
      d="M178 78h156v80c0 23 9 45 26 61 47 43 75 104 75 169 0 48-39 87-87 87H164c-48 0-87-39-87-87 0-65 28-126 75-169 17-16 26-38 26-61V78Z"
      fill="#1c2423"
      stroke="#0a0e0d"
      stroke-width="18"
    />

    <rect
      x="174"
      y="53"
      width="164"
      height="74"
      rx="20"
      fill="url(#metal)"
      stroke="#242b29"
      stroke-width="10"
    />

    <path
      d="M121 307c68 25 199 23 270-4v84c0 27-22 49-49 49H170c-27 0-49-22-49-49v-80Z"
      fill="url(#vidro)"
      stroke="#315051"
      stroke-width="8"
    />

    <path
      d="M154 328c44 15 157 15 205-2"
      fill="none"
      stroke="#b5dde1"
      stroke-width="7"
      opacity=".62"
    />

    <circle
      cx="213"
      cy="355"
      r="16"
      fill="#ba5fe7"
      opacity=".72"
    />

    <circle
      cx="287"
      cy="383"
      r="11"
      fill="#df8dff"
      opacity=".68"
    />

    <circle
      cx="330"
      cy="339"
      r="9"
      fill="#8f3ac7"
      opacity=".74"
    />

    <path
      d="M236 92h40"
      stroke="#e3e6e1"
      stroke-width="8"
      stroke-linecap="round"
      opacity=".55"
    />
  </g>
</svg>
